<svg id="Layer_1" data-name="Layer 1" xmlns="http://www.w3.org/2000/svg" viewBox="0 0 691 160.64"><defs><style>.cls-1{fill:#f16622;}.cls-2{fill:#fff;}</style></defs><path class="cls-1" d="M97.27,92.81V62.47H61.58V92.81H97.27Z"/><path class="cls-1" d="M97.27,129.4H61.58v31.24H97.27Z"/><path class="cls-1" d="M0,0V160.64H35.7l.15-36.57V35.85h88.94V160.64h35.85V0Z"/><path class="cls-2" d="M267.82,104.76H226.48l-8.06,24.62H197.23l36.69-97a6.77,6.77,0,0,1,6.36-4.47h14.53a6.77,6.77,0,0,1,6.36,4.47l36.36,97.05H275.89l-8.06-24.62Zm-5.37-16.27L247.2,48.4,231.85,88.49Z"/><path class="cls-2" d="M327.52,27.87V125a4.62,4.62,0,0,1-4.63,4.62H308.78V32.49a4.63,4.63,0,0,1,4.64-4.63h14.1Z"/><path class="cls-2" d="M357.64,27V38.13a6.75,6.75,0,0,1-6.75,6.75H338.83V33.73A6.76,6.76,0,0,1,345.59,27Zm0,26.29v76.12H338.83V53.26Z"/><path class="cls-2" d="M369.47,102.93h13.94a6.69,6.69,0,0,1,6.28,4.35c2.44,6.53,8.61,9.36,16.45,9.36,9.23,0,13.41-4.82,13.41-10.55,0-6.94-5.06-8.44-17.59-11.45-17-4.07-30-8.29-30-23,0-13.27,12.82-22.31,32.35-22.31s31.45,9.8,33.38,23.21H423.67a6.78,6.78,0,0,1-6-3.88c-2.12-4.26-6.77-6.67-13.45-6.67-8.2,0-13.12,3.77-13.12,8.29,0,6.18,6.26,7.53,17.44,10.25,17,4.07,30.56,8.13,30.56,24.41s-13.27,24.71-32.94,24.71c-21.61,0-35-9.8-36.67-26.67Z"/><path class="cls-2" d="M468.78,35V65.65c4-7.32,11.49-13.88,24.47-13.88,16.42,0,25.08,10,25.08,25.52v52.09h-19V81.47c0-9.25-3.73-14.93-13.88-14.93s-16.71,7.62-16.71,19.56v43.28H450V28.25h12A6.76,6.76,0,0,1,468.78,35Z"/><path class="cls-2" d="M528.32,89.29c0-23,15.43-40,38.82-40S606,66.34,606,89.29s-15.44,40.31-38.82,40.31S528.32,112.54,528.32,89.29Zm57.55,0c0-15.4-6.74-26.12-18.73-26.12s-18.73,10.72-18.73,26.12,6.75,26.42,18.73,26.42S585.87,104.84,585.87,89.29Z"/><path class="cls-2" d="M635.48,56v7.72C640,55.54,648,50.17,658.91,50.17c19.55,0,32.09,16.57,32.09,39.7s-12.54,39.7-32.09,39.7c-10.89,0-18.95-5.23-23.43-13.58v37.68H616.67V49.28h12.05A6.76,6.76,0,0,1,635.48,56ZM671,89.87c0-15.07-6.56-25.67-18.06-25.67S635,74.8,635,89.87s6.42,25.67,17.91,25.67S671,105.1,671,89.87Z"/></svg>